# xmcd CD database file
# Copyright (C) 1993-1998 Ti Kan
#
# Track frame offsets:
#  150
#  3593
#  23927
#  41523
#  63666
#  75790
#  102524
#  122482
#  146726
#  154862
#  175016
#  195261
#  217900
#
# Disc length: 3152 seconds
#
# Revision: 1
# Processed by: cddbd v1.4b41PL1 Copyright (c) Steve Scherf et al.
# Submitted via: CDWizzard Release:4.22
#
DISCID=a10c4e0d
DTITLE=Frankie - My heart Belongs to You
DYEAR=1900
DGENRE=
TTITLE0=Heart -- Interlude
TTITLE1=If I Had You
TTITLE2=One Last Time
TTITLE3=I Have Love
TTITLE4=Wait -- Interlude
TTITLE5=Dear Love
TTITLE6=Think of You
TTITLE7=All I Do 
TTITLE8=Life Without You -- Interlude
TTITLE9=I Can Tell
TTITLE10=Forever With Me
TTITLE11=Have I Told You (I Love You)
TTITLE12=My Heart
EXTD=
EXTT0=
EXTT1=
EXTT2=
EXTT3=
EXTT4=
EXTT5=
EXTT6=
EXTT7=
EXTT8=
EXTT9=
EXTT10=
EXTT11=
EXTT12=
PLAYORDER=
